<svg width="49" height="77" viewBox="0 0 49 77" fill="none" xmlns="http://www.w3.org/2000/svg">
<path d="M46.3346 38.8003C48.8496 37.4732 48.7591 34.4479 46.4968 33.0484C53.1781 25.5449 37.8509 24.938 32.0293 24.4285C31.6447 24.353 31.3279 24.5291 31.3355 24.8625C31.2261 25.5827 31.1168 26.3028 31.0074 27.0261C30.8792 27.4224 31.2714 27.6362 31.7314 27.6111C36.0034 27.7211 40.2415 28.5388 44.1251 29.998C35.4416 33.0138 25.4572 31.7213 16.2345 31.6458C14.2814 31.5421 12.3584 31.2119 10.492 30.7276C10.1753 30.6427 8.84429 30.0514 8.5879 30.1363C12.4489 28.8753 16.4834 28.1237 20.6423 27.9224C21.9808 27.9633 20.9251 25.9286 21.0042 25.2273C21.008 24.9506 20.7478 24.7461 20.401 24.8153C15.273 25.3405 8.93855 25.0575 5.05868 28.2306C3.54293 29.9539 3.99163 31.3722 5.54885 32.7968C5.63181 33.1333 5.29245 33.429 5.02097 33.69C3.97277 34.7089 3.72768 36.231 4.41015 37.4386C9.02527 43.4294 31.5504 42.1495 39.4157 41.0677C41.0031 40.8067 43.1297 40.6369 44.0987 41.9199C44.193 42.052 41.4028 42.7407 41.1879 42.791C29.4276 44.7062 16.2835 45.4704 5.30754 40.8664C4.45917 40.574 4.41769 40.357 4.41392 41.3507C4.37245 48.5177 4.34228 55.6848 4.30835 62.8549C3.98785 69.1131 2.86423 72.195 11.5289 74.4058C21.0834 76.2612 40.0152 78.1481 46.6589 71.0125C47.413 69.9779 47.3074 68.72 47.2999 67.5658C47.2622 61.7322 47.2283 55.8986 47.1943 50.0681C47.1905 49.2725 47.183 48.4769 47.1868 47.6781C47.1905 46.7566 46.229 47.4045 45.7841 47.6623C36.305 53.0337 18.6816 53.1532 8.73494 48.6058C7.92428 47.9076 8.46347 46.7315 8.38429 45.8509C8.37297 45.5899 8.61429 45.4704 8.90085 45.5899C19.6167 48.8605 31.6899 48.9391 42.583 46.1654C46.9115 45.3981 50.1617 41.747 46.3346 38.8003ZM40.7052 36.6398C31.8106 38.9544 22.1467 38.4512 13.0861 36.992C11.7023 36.6996 9.71151 36.6587 8.7915 35.6964C10.345 34.6743 13.4933 35.3347 15.2655 35.5674C22.9536 36.58 30.6455 36.3002 38.3185 35.3504C40.1057 35.1303 41.9797 34.6145 43.4502 35.8096C42.5452 36.1209 41.629 36.3945 40.7052 36.6398ZM42.583 70.1005C35.155 73.3995 26.4451 73.0221 18.0444 72.2516C15.2693 71.9623 12.596 71.349 10.0056 70.5157C8.12035 69.9119 7.89789 69.5533 7.91674 67.8363C7.92806 66.5029 7.93183 66.4966 9.44758 66.9117C19.2434 69.6571 30.3099 69.959 40.2151 67.4086C41.071 67.1979 41.9269 66.9935 42.7715 66.7576C43.0995 66.6664 43.1787 66.723 43.2089 66.9903C43.1448 67.9967 43.8498 69.4779 42.583 70.1005ZM43.3107 62.465C38.1941 66.5941 23.4325 65.9934 16.6003 65.0343C14.3229 64.7135 12.1133 64.1694 9.97545 63.465C8.11281 62.8518 7.90919 62.5027 7.95444 60.6504C7.98083 59.5088 7.98461 59.5025 9.28167 59.8453C19.1341 62.6002 30.2571 62.965 40.2264 60.3988C44.1138 59.4554 43.2239 59.0843 43.3107 62.465ZM9.31561 52.6594C19.809 55.6753 31.6786 55.7791 42.1908 52.7947C43.4238 52.4645 43.4276 52.4582 43.4879 53.5274C43.4238 54.3922 43.8838 55.5055 42.7149 55.9741C33.1039 60.0529 19.3942 58.9899 10.2884 56.3829C8.2674 55.6848 7.81494 55.0338 8.11658 53.2601C8.26363 52.3921 8.2674 52.3733 9.31561 52.6594Z" fill="url(#paint0_linear_100_32)"/>
<path d="M25.9738 19.617C26.4564 19.205 26.5733 18.7301 26.7128 18.271C27.2822 16.4093 27.9231 14.5695 28.8356 12.7959C31.6145 7.14466 39.6457 5.91504 45.9274 4.27345C46.2517 4.20112 46.3799 4.25458 46.4477 4.55019C48.0012 9.69195 47.6279 15.7017 42.6433 19.51C39.51 21.6862 35.3511 22.3435 31.6258 23.5228C31.1206 23.7241 30.7774 23.4222 31.2299 23.0794C34.0126 19.6987 36.7801 16.3086 38.5673 12.4562C32.757 16.881 28.0325 23.0354 27.4104 29.7747C27.35 30.6395 25.4497 30.1395 24.7446 30.2024C24.2544 30.1646 24.0998 29.976 24.0961 29.5514C24.6994 21.1328 20.1182 12.6355 11.1632 8.37743C16.095 11.7392 19.1227 15.4438 20.68 20.6076C20.8383 21.029 20.7139 21.1705 20.2237 21.0541C15.1901 19.9126 9.95282 18.5729 6.30295 15.2929C1.24291 11.1417 -0.951544 6.14147 0.383223 0.279546C0.413387 0.00909227 0.462404 -0.0412244 0.854539 0.0279613C8.81412 1.17267 17.7729 2.22304 22.3956 8.44976C24.5975 11.0379 25.4535 13.906 25.5251 17.0099C25.5439 17.8653 25.5553 18.7301 25.9738 19.617Z" fill="url(#paint1_linear_100_32)"/>
<defs>
<linearGradient id="paint0_linear_100_32" x1="26.1172" y1="24.4112" x2="26.1172" y2="76.1052" gradientUnits="userSpaceOnUse">
<stop offset="0.298077" stop-color="#69BA41"/>
<stop offset="0.75" stop-color="#50A027"/>
</linearGradient>
<linearGradient id="paint1_linear_100_32" x1="23.6299" y1="0" x2="23.6299" y2="30.2899" gradientUnits="userSpaceOnUse">
<stop offset="0.298077" stop-color="#69BA41"/>
<stop offset="0.75" stop-color="#50A027"/>
</linearGradient>
</defs>
</svg>
